# xmcd
#
# Track frame offsets:
#	150
#	13407
#	27172
#	43212
#	56050
#	67100
#	80710
#	92652
#	105007
#	121585
#	136347
#	152290
#	168817
#	180422
#	194227
#	213177
#	228770
#	243637
#	258085
#
# Disc length: 3610 seconds
#
# Revision: 1
# Processed by: cddbd v1.4PL0 Copyright (c) Steve Scherf et al.
# Submitted via: audiograbber 1.80
#
DISCID=f50e1813
DTITLE=Various Artist - Country Trakks 2
DYEAR=1900
DGENRE=
TTITLE0=Dolly Parton - Here You Come Again
TTITLE1=Mac Davis - Baby Don't Get Hooked On Me
TTITLE2=Vicki Lawrence - The Night The Lights Went Out In Georgia
TTITLE3=Claude King - Wolverton Mountain
TTITLE4=Marty Robbins - Singing the Blues
TTITLE5=Jimmy Dean - Big Bad John
TTITLE6=Loretta Lynn - One's On The Way
TTITLE7=Freddy Fender - Wasted Days And Wasted Nights
TTITLE8=Johnny Cash - A Boy Named Sue
TTITLE9=Waylon Jennings - Lukenbach Texas
TTITLE10=Alabama - The Closer You Get
TTITLE11=Alan Jackson - Mercury Blues
TTITLE12=Chris LeDoux - Whatcha Gonna Do WIth A Cowboy
TTITLE13=Dwight Yoakam - Little Sister
TTITLE14=Juice Newton - Angel Of The Morning
TTITLE15=Kris Kristofferson - Why Me
TTITLE16=Led Zeppelin - Hot Dog
TTITLE17=Vince Gill - One More Last Chance
TTITLE18=Clint Black - Killin' Time
EXTD=
EXTT0=
EXTT1=
EXTT2=
EXTT3=
EXTT4=
EXTT5=
EXTT6=
EXTT7=
EXTT8=
EXTT9=
EXTT10=
EXTT11=
EXTT12=
EXTT13=
EXTT14=
EXTT15=
EXTT16=
EXTT17=
EXTT18=
PLAYORDER=
